<svg xmlns="http://www.w3.org/2000/svg" viewBox="0 0 1202 1202"><defs><style>.cls-1{fill:#fff;stroke-width:2px;}.cls-1,.cls-2{stroke:#000;stroke-miterlimit:10;}</style></defs><title>Asset 2</title><g id="Layer_2" data-name="Layer 2"><g id="Layer_1-2" data-name="Layer 1"><path class="cls-1" d="M668,1201c2.22-24.24-31.11-68.43-118.89-142.57S531.7,617.91,531.7,617.91c16.3-42.77,244.82-109.3,276.67-95.52s75.92,1.42,75.92,1.42v-7.6c-4.07,3.33-21.48,15.68-75.55-3.33S532.44,594.62,527.63,587s-2.6-16.16-2.6-16.16C639.48,458.23,671,473.92,671,473.92s20.37,12.35,42.22,2.37,64.45-16.15,64.45-16.15v-5.23c-30.74,2.37-39.26,9.5-64.82,13.3s-28.89,1-31.48-2.37a68.45,68.45,0,0,0-4.44-5.23c-63,.48-144.45,90.77-150.37,90.29s-5.75-10.69-5.75-10.69c-.37-11.17,10.37-27.33,10.37-27.33,42.32-49,44.08-70.57,42.41-79.36s27.22-23.28,27.22-23.28c-2.22-3.8,10.93-27.8,10.93-27.8L610,380.06s-4.07,2.38-9.26,19.48-35,12.12-33.14,35.41-38.52,67.48-38.52,67.48c3-18.53-23.34-68-27.78-75.08s15-45.39,15-45.39h-5.56A188.42,188.42,0,0,0,503,403.35c-4.45,14.25-9.45,5-9.45,5-15,10-56.11-5-56.11-5H423.55s13.34,15,33.34,16.39,29.44-.71,48.88,46.34-5,50.61-5,50.61S489.66,518.11,490,511s-18.7-20-50.37-15.68-57.77-18.53-57.77-18.53a37.87,37.87,0,0,1-23.89,0c8.89,1.42,12.77,7.84,36.57,20.67s59,5.7,76.2,12.12S490,545.2,490,545.2v17.11c-8.51-1.43-14.26-26.38-20.92-22.81s-86.11.71-97.78-4.28-72.22,4.28-72.22,4.28c7.78,2.85,63.89-4.28,80.55,6.41,4.17,2.68,11.86,4.55,21,5.85,27.5,3.91,68.41,2.71,68.41,2.71,2.22,12.11,19.44,26.37,19.44,26.37s3.34,68.43,0,121.89-13.91,218.32-31.66,376.38H1V1H1201V1201Z"/><path class="cls-2" d="M335,529.16a1.19,1.19,0,0,1-.7.36c-5.79.52-34.18,26.38-96.21,16.6-63.34-10-44.45-25.66-78.89-32.79l-34.45-7.13a295.55,295.55,0,0,1-54.44,0c-27.78-2.85,27.78-25.66,34.44-22.81s23.34-4.27,15.56-21.38,47.78-28.51,61.11-29.94,16.67-24.24,14.44-45.62,70-25.66,102.23-48.47,33.33-34.22,41.11-62.73,78.89-35.64,132.22-45.62A749.78,749.78,0,0,1,610.34,216.8c38.89,0,105.55,62.73,111.11,89.81S780.34,349.38,837,359.36s167.78-18.53,187.78,0,57.78,91.24,107.78,99.8-6.67,64.15-60,54.17-160.49,27.59-188.27,11.91-98.49-62.91-127.82-61.36c-37.92,2-27.36-4.93-40.7-7.07-39.1-6.27-76.66-65.22-100-52.39S526.21,425.21,497.32,391c-28.29-33.51-51.93,67.17-89.15,69.37a7.46,7.46,0,0,0-4.72,2.27Z"/></g></g></svg>
