<svg width="144" height="144" viewBox="0 0 144 144" fill="none" xmlns="http://www.w3.org/2000/svg">
<rect x="0.5" y="0.5" width="143" height="143" rx="2.5" stroke="#555555"/>
<mask id="path-2-inside-1" fill="white">
<path fill-rule="evenodd" clip-rule="evenodd" d="M81 50C81 48.3431 79.6569 47 78 47H66C64.3431 47 63 48.3431 63 50C63 51.6569 61.6569 53 60 53H34C32.3431 53 31 54.3431 31 56V95C31 96.6569 32.3431 98 34 98H109C110.657 98 112 96.6569 112 95V56C112 54.3431 110.657 53 109 53H84C82.3431 53 81 51.6569 81 50Z"/>
</mask>
<path d="M66 48H78V46H66V48ZM34 54H60V52H34V54ZM32 56C32 54.8954 32.8954 54 34 54V52C31.7909 52 30 53.7909 30 56H32ZM32 95V56H30V95H32ZM34 97C32.8954 97 32 96.1046 32 95H30C30 97.2091 31.7909 99 34 99V97ZM109 97H34V99H109V97ZM111 95C111 96.1046 110.105 97 109 97V99C111.209 99 113 97.2091 113 95H111ZM111 56V95H113V56H111ZM109 54C110.105 54 111 54.8954 111 56H113C113 53.7909 111.209 52 109 52V54ZM84 54H109V52H84V54ZM62 50C62 51.1046 61.1046 52 60 52V54C62.2091 54 64 52.2091 64 50H62ZM84 52C82.8954 52 82 51.1046 82 50H80C80 52.2091 81.7909 54 84 54V52ZM78 48C79.1046 48 80 48.8954 80 50H82C82 47.7909 80.2091 46 78 46V48ZM66 46C63.7909 46 62 47.7909 62 50H64C64 48.8954 64.8954 48 66 48V46Z" fill="#555555" mask="url(#path-2-inside-1)"/>
<rect x="42" y="49" width="7" height="4" fill="#555555"/>
<rect x="40" y="57" width="8" height="5" fill="#555555"/>
<circle cx="72" cy="76" r="13.5" stroke="#555555"/>
<circle cx="72" cy="76" r="9.5" stroke="#555555"/>
<circle cx="106" cy="59" r="1.5" stroke="#555555"/>
</svg>
