<svg version="1.1" width="410" height="410" xmlns="http://www.w3.org/2000/svg">
  <g transform="translate(0,-642.36218)">
    <path
       d="m 92.52969,1046.7674 c 10.9884,-0.6928 71.6241,-2.4465 84.4808,-2.4433 l 10.7283,0 2.0989,-4.2011 c 4.1286,-8.2639 8.2316,-23.4653 10.4409,-38.6837 1.4406,-9.92309 1.1832,-13.23899 -1.4519,-18.69799 -2.0109,-4.1659 -8.7768,-10.3667 -16.3346,-14.9704 -22.5696,-13.74781 -40.7255,-27.59311 -60.488,-46.12681 -5.3075,-4.9775 -7.4576,-6.5154 -12.7924,-9.1507 -9.8388,-4.86 -16.1925,-10.2253 -23.217,-19.6051 -1.1533,-1.5401 -1.4275,-1.6178 -3.7343,-1.0587 -1.3692,0.3319 -5.7104,0.6481 -9.6469,0.7027 -15.5864,0.216 -30.3664,-6.1233 -41.7466,-17.9055 -12.7052,-13.1539 -18.6354,-28.1627 -18.6165,-47.1165 0.014,-13.3839 2.821,-23.7179 9.4871,-34.9199 7.6486,-12.8529 21.7839,-23.9109 34.9101,-27.3099 2.0015,-0.5183 3.7759,-1.0792 3.9432,-1.2465 0.1673,-0.1672 -0.041,-2.4425 -0.4625,-5.0561 -1.1213,-6.9514 -0.4422,-17.3372 1.5885,-24.2896 5.5858,-19.1243 19.8501,-33.2967 38.5927,-38.3442 9.0821,-2.4457 23.4262,-1.72 32.147,1.6265 0.7309,0.2804 1.3023,-0.5716 2.3813,-3.5512 4.9387,-13.638 14.9414,-26.7866 26.3348,-34.617 28.3574,-19.4893 64.4171,-15.7929 88.5578,9.0778 l 4.4055,4.5387 3.9967,-0.9757 c 2.1981,-0.5366 7.2175,-1.1337 11.154,-1.3267 12.8569,-0.6305 25.1661,3.0672 36.0394,10.8262 l 4.056,2.8943 9.9823,0.093 c 7.94064,0.074 10.94897,0.3564 14.70838,1.3804 23.14728,6.3052 40.06103,25.8545 44.53987,51.4803 1.07689,6.1616 0.8716,17.1464 -0.43758,23.4128 l -0.72856,3.4869 4.26857,5.6238 c 15.98837,21.0645 20.29721,48.4561 11.676,74.2249 -6.25253,18.6888 -19.87656,34.5498 -36.88718,42.9439 -8.07909,3.9867 -18.37197,6.8148 -24.87953,6.836 -3.01453,0.01 -3.62273,0.2643 -6.53507,2.7352 -5.5338,4.6949 -16.373,10.8769 -22.505,12.8353 -1.3693,0.4373 -3.1898,1.2689 -4.0455,1.848 -0.8558,0.5791 -6.4572,3.8114 -12.4477,7.1826 -14.7717,8.3132 -29.8496,18.0081 -38.7452,24.9124 -10.5516,8.1897 -13.3817,17.9625 -11.7084,40.43171 2.1064,28.28389 6.4093,47.14739 12.9903,56.94809 l 2.2986,3.4231 23.3812,0.3939 c 27.1526,0.4575 73.59162,1.8183 73.96999,2.1675 0.14258,0.1316 -59.09279,0.1986 -131.63409,0.149 -72.5414,-0.05 -128.3925,-0.3111 -124.1137,-0.5809 z m 104.0913,-80.76259 c -0.087,-0.79941 -2.5026,-4.71951 -5.3681,-8.71131 -6.2746,-8.7409 -15.6753,-23.0074 -17.7885,-26.9955 -1.2676,-2.3924 -1.9105,-2.9579 -3.7344,-3.285 -5.7734,-1.0353 -14.2423,-4.2253 -21.9358,-8.2626 -1.4384,-0.7547 4.5085,15.9952 7.1831,20.232 3.8648,6.1222 22.0216,19.7908 35.8496,26.98781 4.1177,2.1432 6.0245,2.1545 5.7941,0.035 z m 4.9053,-15.44571 c 0.655,-0.7918 0.8541,-3.6809 0.8541,-12.3958 0,-6.2498 -0.1404,-11.5037 -0.312,-11.6753 -0.1716,-0.1717 -1.8347,0.083 -3.6959,0.5657 -1.8611,0.4827 -5.567,1.0598 -8.2354,1.2823 -5.6207,0.4688 -5.4848,0 -2.3732,8.1561 2.1713,5.6901 5.0328,10.1672 8.2684,12.9367 2.7937,2.3914 4.2097,2.6826 5.494,1.1303 z m 39.6918,-12.0063 c 3.1122,-1.5877 9.0467,-7.4697 12.6956,-12.5831 3.1671,-4.4383 6.9096,-11.9046 6.5332,-13.0338 -0.1296,-0.3889 -2.6049,-1.3886 -5.5005,-2.2214 -2.8957,-0.8327 -7.6094,-2.7787 -10.475,-4.3243 l -5.2103,-2.8102 -1.7286,1.6562 c -1.708,1.6363 -1.7332,1.7731 -2.1036,11.4025 -0.2061,5.3605 -0.4996,12.0382 -0.652,14.8394 -0.2407,4.4221 -0.1117,5.3033 0.9795,6.6906 1.5076,1.9166 2.3427,1.9754 5.4617,0.3841 z m -93.9222,-4.5435 c -1.7418,-3.7529 -4.9755,-14.0119 -4.9755,-15.7848 0,-0.6891 -1.5123,-0.864 -7.4686,-0.864 -4.1077,0 -7.4686,0.1742 -7.4686,0.3873 0,1.239 20.1434,20.1514 21.4632,20.1514 0.1402,0 -0.5576,-1.7505 -1.5505,-3.8899 z m 119.1402,-7.5683 c 4.3638,-2.9262 15.4751,-11.6228 15.1696,-11.873 -0.1004,-0.082 -3.3378,-0.3086 -7.1943,-0.503 l -7.0116,-0.3533 -3.1551,4.6756 c -3.4076,5.0498 -5.6374,9.5127 -5.1482,10.3042 0.7211,1.1668 3.5262,0.3067 7.3396,-2.2505 z"
       style="fill:#000080;fill-opacity:1"
 />
  </g>
</svg>