<svg id="Layer_1" data-name="Layer 1" xmlns="http://www.w3.org/2000/svg" xmlns:xlink="http://www.w3.org/1999/xlink" viewBox="0 0 78.7 137.71"><defs><style>.cls-1{fill:url(#Gradient);}</style><radialGradient id="Gradient" cx="39.35" cy="68.86" r="56.08" gradientUnits="userSpaceOnUse"><stop offset="0" stop-color="#ff6c4e"/><stop offset="0.27" stop-color="#ff6850"/><stop offset="0.51" stop-color="#ff5d57"/><stop offset="0.75" stop-color="#ff4a63"/><stop offset="0.98" stop-color="#ff3073"/><stop offset="1" stop-color="#ff2e74"/></radialGradient></defs><title>splinter_logos</title><path class="cls-1" d="M50.32,88.44a7.48,7.48,0,0,1-8,8.31,7.61,7.61,0,0,1-6.43-4.87,7.17,7.17,0,0,1-.5-2.69,3.3,3.3,0,0,0-1.64-2.9l-19.11-11a3.22,3.22,0,0,0-3.31,0A7.47,7.47,0,1,1,3.82,62.32a3.2,3.2,0,0,0,1.69-2.76V37.2a3.2,3.2,0,0,0-1.69-2.76,7.47,7.47,0,1,1,7.53-12.91,3.26,3.26,0,0,0,3.32,0l19.1-11a3.27,3.27,0,0,0,1.64-2.89,7.17,7.17,0,0,1,.5-2.69A7.61,7.61,0,0,1,42.34,0,7.48,7.48,0,1,1,39,13.87a3.29,3.29,0,0,0-3.32,0l-19.1,11a3.38,3.38,0,0,0-1.65,3v0a7.45,7.45,0,0,1-3.82,6.51,3.19,3.19,0,0,0-1.69,2.75V59.56a3.19,3.19,0,0,0,1.69,2.76A7.44,7.44,0,0,1,15,68.83v0a3.38,3.38,0,0,0,1.65,3l19.1,11a3.29,3.29,0,0,0,3.32,0,7.41,7.41,0,0,1,4.58-1.05A7.51,7.51,0,0,1,50.32,88.44ZM35.09,55.87a7.51,7.51,0,0,0,4.59-1,3.25,3.25,0,0,1,3.31,0l19.11,11a3.41,3.41,0,0,1,1.65,3v0a7.48,7.48,0,0,0,3.83,6.52,3.18,3.18,0,0,1,1.68,2.75v22.37a3.18,3.18,0,0,1-1.68,2.75,7.48,7.48,0,0,0-3.83,6.52v0a3.39,3.39,0,0,1-1.64,3l-19.1,11a3.24,3.24,0,0,1-3.32,0,7.48,7.48,0,1,0-3.33,13.85,7.6,7.6,0,0,0,6.44-4.87,6.91,6.91,0,0,0,.49-2.68,3.33,3.33,0,0,1,1.65-2.9l19.1-11a3.29,3.29,0,0,1,3.32,0,7.41,7.41,0,0,0,4.58,1,7.47,7.47,0,0,0,2.95-14,3.21,3.21,0,0,1-1.69-2.77V78.16a3.22,3.22,0,0,1,1.69-2.77,7.47,7.47,0,1,0-7.53-12.9,3.29,3.29,0,0,1-3.32,0l-19.1-11a3.32,3.32,0,0,1-1.65-2.9,6.94,6.94,0,0,0-.49-2.68A7.59,7.59,0,0,0,36.36,41a7.48,7.48,0,0,0-1.27,14.9Z"/></svg>
