<svg width="42" height="40" viewBox="0 0 42 40" fill="none" xmlns="http://www.w3.org/2000/svg">
<circle cx="10.5455" cy="9.54545" r="9.54545" fill="#4C4B4B"/>
<path d="M41.3536 10.3536C41.5489 10.1583 41.5489 9.84171 41.3536 9.64645L38.1716 6.46447C37.9764 6.2692 37.6598 6.2692 37.4645 6.46447C37.2693 6.65973 37.2693 6.97631 37.4645 7.17157L40.293 10L37.4645 12.8284C37.2693 13.0237 37.2693 13.3403 37.4645 13.5355C37.6598 13.7308 37.9764 13.7308 38.1716 13.5355L41.3536 10.3536ZM19.1819 10.5H41.0001V9.5H19.1819V10.5Z" fill="#4C4B4B"/>
<ellipse cx="31.4545" cy="30.4545" rx="9.54545" ry="9.54545" transform="rotate(180 31.4545 30.4545)" fill="#4C4B4B"/>
<path d="M0.64638 29.6464C0.451118 29.8417 0.451118 30.1583 0.64638 30.3536L3.82836 33.5355C4.02362 33.7308 4.34021 33.7308 4.53547 33.5355C4.73073 33.3403 4.73073 33.0237 4.53547 32.8284L1.70704 30L4.53547 27.1716C4.73073 26.9763 4.73073 26.6597 4.53547 26.4645C4.3402 26.2692 4.02362 26.2692 3.82836 26.4645L0.64638 29.6464ZM22.8181 29.5L0.999933 29.5L0.999933 30.5L22.8181 30.5L22.8181 29.5Z" fill="#4C4B4B"/>
</svg>
