<svg width="500" height="500" viewBox="0 0 500 500" fill="none" xmlns="http://www.w3.org/2000/svg">
<path d="M10.5876 495.561C16.6453 501.517 26.424 501.474 32.4289 495.464L250 277.729L467.571 495.465C473.576 501.474 483.355 501.517 489.412 495.561L495.429 489.646C501.486 483.69 501.529 473.99 495.524 467.98L277.708 250L495.524 32.0199C501.529 26.0105 501.486 16.3105 495.429 10.3543L489.412 4.43903C483.355 -1.51713 473.576 -1.47396 467.571 4.53546L250 222.271L32.4289 4.53558C26.424 -1.47383 16.6454 -1.51701 10.5876 4.43915L4.57147 10.3544C-1.48626 16.3106 -1.52909 26.0106 4.47579 32.02L222.291 250L4.47579 467.98C-1.52909 473.989 -1.48626 483.689 4.57147 489.646L10.5876 495.561Z" fill="#222222" fill-opacity="0.87"/>
</svg>
