<svg width="80" height="80" viewBox="0 0 80 80" fill="none" xmlns="http://www.w3.org/2000/svg">
<path d="M42.1504 21.921V9.23145H54.4389V21.921H42.1504Z" fill="#222325"/>
<path d="M58.7395 21.921V9.23145H70.7685V21.921H58.7395Z" fill="#222325"/>
<path d="M9.23145 38.1293V26.2217H21.6413V38.1293H9.23145Z" fill="#222325"/>
<path d="M42.1504 38.1293V26.2217H54.4389V38.1293H42.1504Z" fill="#222325"/>
<path d="M25.9421 70.7685V59.0159H37.8498V70.7685H25.9421Z" fill="#222325"/>
<path d="M25.9421 21.921V9.23145H37.8498V21.921H25.9421Z" fill="#222325"/>
<path d="M58.7395 38.1293V26.2217H70.7685V38.1293H58.7395Z" fill="#222325"/>
<path d="M25.9421 38.1293V26.2217H37.8498V38.1293H25.9421Z" fill="#222325"/>
<path d="M25.9421 54.7153V42.4302H37.8498V54.7153H25.9421Z" fill="#222325"/>
<path d="M42.1504 54.7153V42.4302H54.4389V54.7153H42.1504Z" fill="#F35F19"/>
<path d="M9.23145 21.921V9.23145H21.6413V21.921H9.23145Z" fill="#F35F19"/>
<path d="M9.23145 70.7685V59.0159H21.6413V70.7685H9.23145Z" fill="#222325"/>
<path d="M9.23145 54.7153V42.4302H21.6413V54.7153H9.23145Z" fill="#222325"/>
<path d="M80 0H0V80H80V0ZM75.669 4.33097V75.669H4.33097V4.33097H75.669Z" fill="#F35F19"/>
</svg>
